<svg id="Layer_1" data-name="Layer 1" xmlns="http://www.w3.org/2000/svg" viewBox="0 0 1920 1080"><path d="M735.29,296l.3,13.91.61,28.1q.15,6.66.29,13.32a47.07,47.07,0,0,1-.51,7.32,22.12,22.12,0,0,1-1,5.3c-.74,1.87-2.57,3.12-4.08,4.33-3.09,2.47-6.84,4.42-10.88,4.48s-7.47-1.81-10.32-4.42c-4.31-3.95-5.67-7.07-5.72-12.9q-.06-5.77-.11-11.55l-.28-29.86c0-3.9-.07-7.79-.11-11.69-.06-6.5.1-12.4,2.78-18.44A38.7,38.7,0,0,1,717,269.49c4.13-3.34,10.13-6.51,15.56-6.63l21.34-.47,38.22-.83,9.49-.21c3.25-.07,6.86-.67,9.76,1.16a27.55,27.55,0,0,1,4.89,3.85c3.87,3.84,6,9,4.29,14.42a21.51,21.51,0,0,1-4.76,7.68c-2.5,2.72-4.1,4.45-7.93,4.44-4.73,0-9.46.28-14.19.4l-20,.49-20.13.5-14.56.36-3.81.09Z" style="fill:none;stroke:#000;stroke-miterlimit:10"/><path d="M1154.87,294.49l-13.91.36-28.1.72-13.32.34a45.94,45.94,0,0,1-7.32-.49,22.16,22.16,0,0,1-5.31-.94c-1.86-.73-3.13-2.55-4.34-4.06-2.48-3.09-4.45-6.82-4.53-10.86a15.18,15.18,0,0,1,4.38-10.34c3.94-4.33,7-5.7,12.88-5.78l11.55-.15,29.86-.4c3.9,0,7.8-.1,11.69-.15,6.51-.09,12.4.05,18.45,2.71a38.59,38.59,0,0,1,14.48,10.65c3.35,4.11,6.55,10.1,6.69,15.53l.55,21.34,1,38.22.24,9.48c.09,3.26.7,6.87-1.11,9.77a28,28,0,0,1-3.84,4.91c-3.82,3.88-9,6.07-14.4,4.34a21.28,21.28,0,0,1-7.69-4.73c-2.73-2.49-4.48-4.08-4.48-7.91,0-4.73-.32-9.46-.45-14.19l-.57-20-.58-20.13-.41-14.56c0-1.27-.08-2.54-.11-3.81Z" style="fill:none;stroke:#000;stroke-miterlimit:10"/><path d="M1156.29,737.29l-.21-13.92-.41-28.1q-.09-6.66-.19-13.33a47.08,47.08,0,0,1,.57-7.31,22,22,0,0,1,1-5.29c.75-1.86,2.59-3.11,4.11-4.3,3.11-2.45,6.87-4.38,10.91-4.41s7.46,1.87,10.29,4.5c4.29,4,5.62,7.11,5.63,12.94l0,11.55.06,29.86c0,3.9,0,7.8,0,11.69,0,6.51-.19,12.4-2.92,18.42A38.53,38.53,0,0,1,1174.38,764c-4.15,3.3-10.17,6.43-15.6,6.51l-21.34.32-38.23.56-9.49.14c-3.25,0-6.87.62-9.75-1.23a28.92,28.92,0,0,1-4.87-3.88c-3.83-3.87-6-9.07-4.18-14.45a21.32,21.32,0,0,1,4.82-7.65c2.51-2.7,4.13-4.42,8-4.39,4.73,0,9.47-.21,14.2-.29l20-.35,20.13-.35,14.56-.26,3.82-.06Z" style="fill:none;stroke:#000;stroke-miterlimit:10"/><path d="M739.66,739.15l49.64-1c7.81-.16,16.48,0,22.19,5.32,6.26,5.86,5.92,17.27-.69,22.74-5.35,4.43-12.9,4.68-19.85,4.71l-35.08.15c-8.7,0-17.56.06-25.91-2.41-6.53-1.94-12.85-5.62-17-11.16-4.93-6.64-5.71-14.75-6.48-22.82-1.7-17.88,0-35.85-.91-53.75-.37-7.32-1-15.31,3.27-21.27a15,15,0,0,1,24.28-.32c3.74,5,4.06,11.62,4.2,17.84.48,20.68.69,41.36.91,62Z" style="fill:none;stroke:#000;stroke-miterlimit:10"/><path d="M723.55,515l0,0,38.64,51.14c3.89,5.16,8,11.4,6.19,17.6-2,6.67-10.4,9.69-17.07,7.76s-11.69-7.44-15.57-13.2c-6-8.94-12.18-17.65-18.44-26.4l-20.74-29-.83-1.16c-2-2.8-4.11-6-3.71-9.39.3-2.54,1.93-4.69,3.5-6.71l44.41-56.77c1.87-2.39,3.87-4.88,6.67-6,4.73-1.95,10,.46,14.44,3.09,2.38,1.42,4.85,3.09,5.87,5.68,1.67,4.26-1.28,8.81-4.08,12.44Z" style="fill:none;stroke:#000;stroke-miterlimit:10"/><path d="M1173.82,516.39l0-.08-40.16-47.69c-3-3.63-6.18-7.38-7.58-11.91s-.65-10.06,3-13a15.09,15.09,0,0,1,7.37-2.67c3.35-.49,6.9-.59,10,.84s5.18,4.07,7.25,6.66l47.3,59.24c1.94,2.43,4,5.09,4.1,8.2s-1.64,5.9-3.36,8.47q-20.52,30.78-42.67,60.44a14.2,14.2,0,0,1-4.49,4.41c-2.45,1.27-5.39,1-8.12.54-12.18-2.08-16.14-11-9-21.22Q1155.67,542.5,1173.82,516.39Z" style="fill:none;stroke:#000;stroke-miterlimit:10"/><ellipse cx="851.29" cy="277.43" rx="11.86" ry="12.29" style="fill:none;stroke:#000;stroke-miterlimit:10"/><circle cx="774" cy="514.57" r="22" style="fill:none;stroke:#000;stroke-miterlimit:10"/><ellipse cx="851.57" cy="754.86" rx="11.57" ry="11.71" style="fill:none;stroke:#000;stroke-miterlimit:10"/><ellipse cx="1046" cy="756.57" rx="10.86" ry="11.14" style="fill:none;stroke:#000;stroke-miterlimit:10"/><path d="M1038,485.66c.28-.17.11-.53,0-1.25s-.2-1.71-.33-2.55c-.23-1.63-.52-3.25-.86-4.87a82.93,82.93,0,0,0-6.34-18.63,89.41,89.41,0,0,0-24.38-30.8,85.41,85.41,0,0,0-18.68-11.49c-27.56-12.35-61.08-9.59-86.92,6-.8.48-3.27,2.13-2.58,3.39.29.52,1.91.89,2.45,1.12L903.6,428l12.28,5.29,24.57,10.59,49.13,21.18c8.09,3.47,16.18,7,24.27,10.46l12.25,5.29c1.92.82,3.78,1.76,5.66,2.65,1.4.65,4.21,2.49,5.78,2.33A1.07,1.07,0,0,0,1038,485.66Z" style="fill:none;stroke:#000;stroke-miterlimit:10"/><path d="M854.29,538.45c-.28.17-.1.53,0,1.26s.2,1.7.32,2.55c.24,1.63.53,3.25.86,4.86a82.76,82.76,0,0,0,6.34,18.63,89.23,89.23,0,0,0,24.37,30.81,85.15,85.15,0,0,0,18.67,11.5c27.56,12.36,61.08,9.61,86.93-6,.8-.48,3.26-2.13,2.58-3.39-.29-.52-1.91-.89-2.45-1.13l-3.2-1.37-12.28-5.3-24.56-10.6-49.12-21.19c-8.09-3.47-16.17-7-24.26-10.47l-12.26-5.29c-1.91-.82-3.77-1.77-5.66-2.65-1.4-.66-4.2-2.49-5.78-2.33A1.14,1.14,0,0,0,854.29,538.45Z" style="fill:none;stroke:#000;stroke-miterlimit:10"/><path d="M801.28,625.08c2.5-13,11-24.1,20.34-33.14,3.46-3.34,7.38-6.62,12.13-7.38,10.42-1.67,18.22,8.81,24.21,17.5,15.78,22.92,37.86,42.7,64.74,49.87,32.24,8.6,69-3.32,90.07-29.21,5.93-7.29,10.85-16.59,8.74-25.75-2.56-11.12-14.11-17.37-24.63-21.79-39.59-16.65-81.66-27.51-119.62-47.59-30.42-16.09-59-39.61-70.77-71.94-15.06-41.24,1.63-90.09,34.76-118.9,56.31-49,152.57-45.19,209.73.32a134.22,134.22,0,0,1,19.5,19c12.67,15.21,22,34.4,20.57,54.13-1.1,14.78-11.08,30.7-25.88,31.21-15.49.54-25.91-14.81-36-26.62-24.31-28.59-65.65-44.32-103.24-38.64-15.23,2.3-30.51,8.1-40.93,19.44-22.68,24.7-6.72,52.51,19.18,64.7,34.26,16.12,72.17,22.8,107.45,36.56s69.88,37.28,82.2,73.09c12.55,36.5-1.62,78.21-27.41,106.93C1033,714.13,980.79,733,931,727.73c-27.59-2.89-54.23-13-77.33-28.24a184.81,184.81,0,0,1-32-26.84c-9.67-10.18-19.69-21.88-21-36.48A40.85,40.85,0,0,1,801.28,625.08Z" style="fill:none;stroke:red;stroke-miterlimit:10"/></svg>